<svg width="26" height="26" viewBox="0 0 26 26" fill="none" xmlns="http://www.w3.org/2000/svg">
<path d="M13 6.59072C9.45312 6.59072 6.59062 9.45322 6.59062 13.0001C6.59062 16.547 9.45312 19.4095 13 19.4095C16.5469 19.4095 19.4094 16.547 19.4094 13.0001C19.4094 9.45322 16.5469 6.59072 13 6.59072ZM13 17.1657C10.7062 17.1657 8.83437 15.2938 8.83437 13.0001C8.83437 10.7063 10.7062 8.83447 13 8.83447C15.2937 8.83447 17.1656 10.7063 17.1656 13.0001C17.1656 15.2938 15.2937 17.1657 13 17.1657ZM19.6719 4.83447C18.8438 4.83447 18.175 5.50322 18.175 6.33135C18.175 7.15947 18.8438 7.82822 19.6719 7.82822C20.5 7.82822 21.1688 7.1626 21.1688 6.33135C21.169 6.13471 21.1304 5.93995 21.0553 5.75823C20.9802 5.57651 20.8699 5.4114 20.7309 5.27235C20.5918 5.1333 20.4267 5.02305 20.245 4.94791C20.0633 4.87278 19.8685 4.83423 19.6719 4.83447ZM25.4937 13.0001C25.4937 11.2751 25.5094 9.56572 25.4125 7.84385C25.3156 5.84385 24.8594 4.06885 23.3969 2.60635C21.9312 1.14072 20.1594 0.687599 18.1594 0.590724C16.4344 0.493849 14.725 0.509474 13.0031 0.509474C11.2781 0.509474 9.56875 0.493849 7.84687 0.590724C5.84687 0.687599 4.07187 1.14385 2.60937 2.60635C1.14375 4.07197 0.690624 5.84385 0.593749 7.84385C0.496874 9.56885 0.512499 11.2782 0.512499 13.0001C0.512499 14.722 0.496874 16.4345 0.593749 18.1563C0.690624 20.1563 1.14687 21.9313 2.60937 23.3938C4.075 24.8595 5.84687 25.3126 7.84687 25.4095C9.57187 25.5063 11.2812 25.4907 13.0031 25.4907C14.7281 25.4907 16.4375 25.5063 18.1594 25.4095C20.1594 25.3126 21.9344 24.8563 23.3969 23.3938C24.8625 21.9282 25.3156 20.1563 25.4125 18.1563C25.5125 16.4345 25.4937 14.7251 25.4937 13.0001ZM22.7437 20.3688C22.5156 20.9376 22.2406 21.3626 21.8 21.8001C21.3594 22.2407 20.9375 22.5157 20.3687 22.7438C18.725 23.397 14.8219 23.2501 13 23.2501C11.1781 23.2501 7.27187 23.397 5.62812 22.747C5.05937 22.5189 4.63437 22.2438 4.19687 21.8032C3.75625 21.3626 3.48125 20.9407 3.25312 20.372C2.60312 18.7251 2.75 14.822 2.75 13.0001C2.75 11.1782 2.60312 7.27197 3.25312 5.62822C3.48125 5.05947 3.75625 4.63447 4.19687 4.19697C4.6375 3.75947 5.05937 3.48135 5.62812 3.25322C7.27187 2.60322 11.1781 2.7501 13 2.7501C14.8219 2.7501 18.7281 2.60322 20.3719 3.25322C20.9406 3.48135 21.3656 3.75635 21.8031 4.19697C22.2437 4.6376 22.5188 5.05947 22.7469 5.62822C23.3969 7.27197 23.25 11.1782 23.25 13.0001C23.25 14.822 23.3969 18.7251 22.7437 20.3688Z" fill="#1E1E1E"/>
</svg>
