<svg width="26" height="26" viewBox="0 0 26 26" fill="none" xmlns="http://www.w3.org/2000/svg">
<path d="M13 6.5906C9.45312 6.5906 6.59062 9.4531 6.59062 13C6.59062 16.5469 9.45312 19.4094 13 19.4094C16.5469 19.4094 19.4094 16.5469 19.4094 13C19.4094 9.4531 16.5469 6.5906 13 6.5906ZM13 17.1656C10.7062 17.1656 8.83437 15.2937 8.83437 13C8.83437 10.7062 10.7062 8.83435 13 8.83435C15.2937 8.83435 17.1656 10.7062 17.1656 13C17.1656 15.2937 15.2937 17.1656 13 17.1656ZM19.6719 4.83435C18.8438 4.83435 18.175 5.5031 18.175 6.33123C18.175 7.15935 18.8438 7.8281 19.6719 7.8281C20.5 7.8281 21.1688 7.16248 21.1688 6.33123C21.169 6.13459 21.1304 5.93983 21.0553 5.75811C20.9802 5.57639 20.8699 5.41127 20.7309 5.27223C20.5918 5.13318 20.4267 5.02293 20.245 4.94779C20.0633 4.87265 19.8685 4.83411 19.6719 4.83435V4.83435ZM25.4937 13C25.4937 11.275 25.5094 9.5656 25.4125 7.84373C25.3156 5.84373 24.8594 4.06873 23.3969 2.60623C21.9313 1.1406 20.1594 0.687477 18.1594 0.590602C16.4344 0.493727 14.725 0.509352 13.0031 0.509352C11.2781 0.509352 9.56875 0.493727 7.84687 0.590602C5.84687 0.687477 4.07187 1.14373 2.60937 2.60623C1.14375 4.07185 0.690624 5.84373 0.593749 7.84373C0.496874 9.56873 0.512499 11.2781 0.512499 13C0.512499 14.7219 0.496874 16.4344 0.593749 18.1562C0.690624 20.1562 1.14687 21.9312 2.60937 23.3937C4.075 24.8594 5.84687 25.3125 7.84687 25.4094C9.57187 25.5062 11.2812 25.4906 13.0031 25.4906C14.7281 25.4906 16.4375 25.5062 18.1594 25.4094C20.1594 25.3125 21.9344 24.8562 23.3969 23.3937C24.8625 21.9281 25.3156 20.1562 25.4125 18.1562C25.5125 16.4344 25.4937 14.725 25.4937 13V13ZM22.7437 20.3687C22.5156 20.9375 22.2406 21.3625 21.8 21.8C21.3594 22.2406 20.9375 22.5156 20.3687 22.7437C18.725 23.3969 14.8219 23.25 13 23.25C11.1781 23.25 7.27187 23.3969 5.62812 22.7469C5.05937 22.5187 4.63437 22.2437 4.19687 21.8031C3.75625 21.3625 3.48125 20.9406 3.25312 20.3719C2.60312 18.725 2.75 14.8219 2.75 13C2.75 11.1781 2.60312 7.27185 3.25312 5.6281C3.48125 5.05935 3.75625 4.63435 4.19687 4.19685C4.6375 3.75935 5.05937 3.48123 5.62812 3.2531C7.27187 2.6031 11.1781 2.74998 13 2.74998C14.8219 2.74998 18.7281 2.6031 20.3719 3.2531C20.9406 3.48123 21.3656 3.75623 21.8031 4.19685C22.2438 4.63748 22.5188 5.05935 22.7469 5.6281C23.3969 7.27185 23.25 11.1781 23.25 13C23.25 14.8219 23.3969 18.725 22.7437 20.3687Z" fill="#E0CEA9"/>
</svg>
