<svg width="340" height="30" viewBox="0 0 340 30" fill="none" xmlns="http://www.w3.org/2000/svg">
<path d="M7.27637 1.83643H4.96924V0.57666H14.3003V1.83643H11.9272L17.4497 20.7402H19.5225V22H10.521V20.7402H12.7988L10.5503 12.9692C10.3452 13.9653 10.0156 15.0249 9.56152 16.1479C9.1123 17.2661 8.57275 18.3013 7.94287 19.2534C7.31299 20.2007 6.60986 20.9648 5.8335 21.5459C5.06201 22.127 4.26367 22.4175 3.43848 22.4175C2.51074 22.4175 1.71729 22.1196 1.05811 21.5239C0.403809 20.9233 0.0766602 20.0225 0.0766602 18.8213C0.0766602 17.7568 0.311035 16.5874 0.779785 15.313C1.24854 14.0337 1.85156 12.7471 2.58887 11.4531C3.32617 10.1592 4.18066 8.7749 5.15234 7.30029C5.21094 7.20752 5.51123 6.75586 6.05322 5.94531C6.59521 5.12988 6.94922 4.51221 7.11523 4.09229C7.28613 3.66748 7.37158 3.21582 7.37158 2.7373C7.37158 2.45898 7.33984 2.15869 7.27637 1.83643ZM9.67871 10.1201L8.33105 5.35205C7.20801 6.90479 6.24854 8.41357 5.45264 9.87842C4.88135 10.9038 4.41016 11.8535 4.03906 12.7275C3.66797 13.5967 3.42871 14.5269 3.32129 15.5181V16.3018C3.47266 17.2783 4.0415 17.7666 5.02783 17.7666C5.78467 17.7666 6.49756 17.3198 7.1665 16.4263C7.83545 15.5327 8.39209 14.4829 8.83643 13.2769C9.28076 12.0659 9.56152 11.0137 9.67871 10.1201ZM31.6209 20.7402H33.5691C33.0564 19.1875 32.5999 17.6055 32.1995 15.9941C31.804 14.3779 31.4793 12.9448 31.2254 11.6948C30.9715 10.4399 30.7347 9.21436 30.5149 8.01807C30.3245 6.9585 30.1536 6.12842 30.0022 5.52783C29.4651 6.15283 28.8963 7.05371 28.2957 8.23047C26.7527 11.1016 25.9813 13.5112 25.9813 15.4595C25.9813 16.3872 26.013 17.0635 26.0765 17.4883C26.1448 17.9082 26.2303 18.1768 26.3328 18.2939C26.4402 18.4062 26.5745 18.4624 26.7356 18.4624H26.8528H26.9114C27.1458 18.4624 27.324 18.6577 27.4461 19.0483C27.5682 19.439 27.6292 20.2837 27.6292 21.5825C27.6292 21.8706 27.49 22.0806 27.2117 22.2124C27.0213 22.2905 26.8016 22.3296 26.5525 22.3296C26.3133 22.3296 25.9739 22.2905 25.5345 22.2124C25.3538 22.1929 25.0828 22.1831 24.7215 22.1831C24.3016 22.1831 23.9817 22.1929 23.762 22.2124C23.1956 22.2124 22.7879 22.144 22.5389 22.0073C22.2947 21.8706 22.1531 21.5874 22.1141 21.1577V20.1104C22.1531 19.3779 22.2508 18.6504 22.407 17.9277C22.5682 17.2051 22.8416 16.3677 23.2273 15.4155C23.618 14.4585 24.1868 13.2524 24.9339 11.7974C25.4808 10.7378 25.9422 9.84424 26.3182 9.1167C26.6941 8.38428 26.8919 7.99854 26.9114 7.95947C27.5169 6.85596 28.0223 5.88428 28.4275 5.04443C28.8377 4.20459 29.0428 3.52588 29.0428 3.0083C29.0428 2.68115 28.9573 2.47607 28.7864 2.39307C28.6155 2.30518 28.3616 2.26123 28.0247 2.26123H25.952V1.00146H35.8543V2.26123H34.0232C34.3504 4.70752 34.8533 7.43701 35.532 10.4497C36.2156 13.4575 36.9334 16.1968 37.6854 18.6675C37.8904 19.3218 38.0784 20.0127 38.2493 20.7402H40.4393V22H31.6209V20.7402ZM52.8673 1.00146V2.26123H50.3771V9.67334C50.9239 10.1812 51.6124 10.623 52.4425 10.999C53.2726 11.375 54.0953 11.6631 54.9107 11.8633C55.7311 12.0635 56.3878 12.1636 56.881 12.1636C57.0763 12.1636 57.4864 12.1416 58.1114 12.0977C58.7999 12.0977 59.2809 12.2222 59.5543 12.4712C59.8326 12.7153 59.9718 13.2427 59.9718 14.0532V19.8979C59.9718 20.5425 59.9059 21.0137 59.774 21.3115C59.6422 21.6045 59.4518 21.7925 59.2027 21.8755C58.9537 21.9585 58.5997 22 58.1407 22H43.2359V20.7402H45.7262V2.26123H43.2359V1.00146H52.8673ZM50.3771 20.7402H53.0724C53.7364 20.7402 54.276 20.645 54.691 20.4546C55.1109 20.2642 55.3209 19.8003 55.3209 19.063V15.4888C55.3209 15.313 55.316 15.2007 55.3063 15.1519C55.2965 15.103 55.2916 14.9761 55.2916 14.771C55.277 14.2632 55.1939 13.9165 55.0426 13.731C54.8912 13.5405 54.4542 13.3379 53.7315 13.123C52.4474 12.7178 51.3292 12.1172 50.3771 11.3213V20.7402ZM70.6493 2.26123V20.7402H72.7147V22H63.5082V20.7402H65.9984V2.26123H63.5082V1.00146H84.4188V2.26123H81.9286V20.7402H84.4188V22H75.205V20.7402H77.2777V2.26123H70.6493ZM95.0744 1.83643H92.7673V0.57666H102.098V1.83643H99.7253L105.248 20.7402H107.321V22H98.319V20.7402H100.597L98.3483 12.9692C98.1433 13.9653 97.8137 15.0249 97.3596 16.1479C96.9104 17.2661 96.3708 18.3013 95.7409 19.2534C95.111 20.2007 94.4079 20.9648 93.6315 21.5459C92.8601 22.127 92.0617 22.4175 91.2365 22.4175C90.3088 22.4175 89.5153 22.1196 88.8562 21.5239C88.2019 20.9233 87.8747 20.0225 87.8747 18.8213C87.8747 17.7568 88.1091 16.5874 88.5778 15.313C89.0466 14.0337 89.6496 12.7471 90.3869 11.4531C91.1242 10.1592 91.9787 8.7749 92.9504 7.30029C93.009 7.20752 93.3093 6.75586 93.8513 5.94531C94.3933 5.12988 94.7473 4.51221 94.9133 4.09229C95.0842 3.66748 95.1696 3.21582 95.1696 2.7373C95.1696 2.45898 95.1379 2.15869 95.0744 1.83643ZM97.4768 10.1201L96.1291 5.35205C95.0061 6.90479 94.0466 8.41357 93.2507 9.87842C92.6794 10.9038 92.2082 11.8535 91.8371 12.7275C91.466 13.5967 91.2268 14.5269 91.1193 15.5181V16.3018C91.2707 17.2783 91.8396 17.7666 92.8259 17.7666C93.5827 17.7666 94.2956 17.3198 94.9646 16.4263C95.6335 15.5327 96.1901 14.4829 96.6345 13.2769C97.0788 12.0659 97.3596 11.0137 97.4768 10.1201ZM121.763 20.7402L118.489 5.49854C117.727 6.67529 117.095 7.78613 116.592 8.83105C116.089 9.87109 115.708 10.9062 115.449 11.9365C115.195 12.9668 115.068 14.0215 115.068 15.1006C115.068 15.7451 115.134 16.6631 115.266 17.8545C115.403 19.0459 115.479 19.7881 115.493 20.0811V21.5825C115.459 21.895 115.317 22.105 115.068 22.2124C114.888 22.2905 114.668 22.3296 114.409 22.3296C114.17 22.3296 113.811 22.2905 113.333 22.2124C113.152 22.1929 112.891 22.1831 112.549 22.1831C112.129 22.1831 111.809 22.1929 111.589 22.2124C111.267 22.2515 111.057 22.271 110.959 22.271C110.593 22.271 110.327 22.127 110.161 21.8389C109.995 21.5508 109.912 20.9746 109.912 20.1104C109.912 18.6406 110.11 17.3174 110.505 16.1406C110.901 14.9639 111.399 13.9141 112 12.9912C112.6 12.0684 113.474 10.8403 114.622 9.30713C115.745 7.78857 116.55 6.5874 117.039 5.70361C117.527 4.81982 117.771 3.92139 117.771 3.0083C117.771 2.83252 117.751 2.5835 117.712 2.26123H115.493V1.00146H124.07V2.26123H122.393L126.201 19.8687L129.534 2.26123H128.208V1.00146H136.279V2.26123H134.331L138.352 20.7402H140.417V22H132.383V20.7402H133.701L130.31 4.95654L127.373 20.7402H128.962V22H120.203V20.7402H121.763ZM162.373 2.26123V20.7402H164.439V22H155.232V20.7402H157.722V2.26123H155.232V1.00146H176.143V2.26123H173.652V20.7402H176.143V22H166.929V20.7402H169.002V2.26123H162.373ZM186.835 13.9873V20.7402H189.325V22H179.694V20.7402H182.184V9.76123C182.184 8.19873 182.213 6.67773 182.272 5.19824C182.863 3.7627 183.812 2.63477 185.121 1.81445C186.434 0.989258 187.894 0.57666 189.501 0.57666C191.088 0.57666 192.453 0.840332 193.595 1.36768C194.738 1.89502 195.604 2.61768 196.195 3.53564C196.791 4.45361 197.089 5.46924 197.089 6.58252C197.089 7.6665 196.869 8.65283 196.43 9.5415C195.99 10.4302 195.382 11.1284 194.606 11.6362C193.834 12.144 192.973 12.3979 192.02 12.3979C191.532 12.3979 191.144 12.3442 190.856 12.2368C190.568 12.1245 190.136 11.9194 189.559 11.6216C189.252 11.4653 189.032 11.3555 188.9 11.292L186.835 13.9873ZM186.835 12.1929L188.754 9.76123C188.939 9.90771 189.142 10.0298 189.362 10.1274C189.586 10.2202 189.752 10.2666 189.86 10.2666C190.333 10.2666 190.778 10.0054 191.193 9.48291C191.608 8.95557 191.815 7.9668 191.815 6.5166C191.815 5.07129 191.637 3.93115 191.281 3.09619C190.929 2.25635 190.265 1.83643 189.288 1.83643C188.556 1.83643 188.009 2.09766 187.648 2.62012C187.291 3.14258 187.067 3.78467 186.974 4.54639C186.881 5.30811 186.835 6.26514 186.835 7.41748V8.14258V12.1929ZM209.363 0.188477C209.553 0.188477 209.712 0.251953 209.839 0.378906C209.966 0.500977 210.227 0.776855 210.623 1.20654C211.287 1.89014 212.237 2.77148 213.472 3.85059C214.761 4.97363 215.752 6.09424 216.446 7.2124C217.144 8.33057 217.493 9.70996 217.493 11.3506C217.493 12.7471 217.237 13.9727 216.724 15.0273C216.216 16.082 215.65 16.939 215.025 17.5981C214.404 18.2524 213.137 19.5 211.223 21.3408C210.657 21.9072 210.237 22.293 209.964 22.498C209.695 22.708 209.446 22.813 209.217 22.813C209.007 22.813 208.716 22.6787 208.345 22.4102C207.979 22.1465 207.249 21.5508 206.155 20.623C205.086 19.6953 204.341 19.0386 203.921 18.6528C203.501 18.2622 203.035 17.7275 202.522 17.0488C202.014 16.3652 201.607 15.5938 201.299 14.7344C200.996 13.875 200.845 12.9058 200.845 11.8267C200.845 8.34521 202.805 5.06641 206.726 1.99023C207.302 1.53125 207.732 1.16016 208.015 0.876953C208.435 0.417969 208.884 0.188477 209.363 0.188477ZM207.385 4.15088C206.677 4.24854 206.045 4.52441 205.488 4.97852C204.937 5.43262 204.509 5.98438 204.207 6.63379C203.904 7.27832 203.753 7.92041 203.753 8.56006C203.753 9.03369 203.85 9.52686 204.046 10.0396C204.241 10.5474 204.529 11.0845 204.91 11.6509C205.291 12.2173 205.747 12.7983 206.279 13.394C206.812 13.9897 207.481 14.688 208.286 15.4888C209.263 16.4507 209.898 17.1343 210.191 17.5396C210.488 17.9448 210.664 18.4111 210.718 18.9385C211.587 18.6064 212.398 18.0498 213.15 17.2686C213.902 16.4824 214.341 15.6597 214.468 14.8003V13.7822C214.404 13.377 214.253 12.957 214.014 12.5225C213.775 12.083 213.491 11.6533 213.164 11.2334C212.837 10.8135 212.456 10.3569 212.022 9.86377C211.587 9.37061 211.072 8.79688 210.476 8.14258C209.939 7.54688 209.483 7.04395 209.107 6.63379C208.736 6.21875 208.443 5.87695 208.228 5.6084C208.013 5.33984 207.842 5.09814 207.715 4.8833C207.593 4.66357 207.483 4.41943 207.385 4.15088ZM235.575 1.00146V2.26123H233.898C234 3.29639 234.213 4.81982 234.535 6.83154C234.862 8.83838 235.255 10.9453 235.714 13.1523C236.173 15.3594 236.62 17.1709 237.055 18.5869C237.494 20.0029 237.87 20.7109 238.183 20.7109C238.29 20.7109 238.439 20.6523 238.629 20.5352C238.82 20.4131 239.132 20.3521 239.567 20.3521C239.85 20.3521 240.065 20.457 240.211 20.667C240.363 20.877 240.438 21.1113 240.438 21.3701C240.438 21.5557 240.307 21.9756 240.043 22.6299C239.784 23.2939 239.574 24.0337 239.413 24.8491C239.242 25.855 239.103 26.5215 238.996 26.8486C238.893 27.1758 238.654 27.3394 238.278 27.3394C237.941 27.3394 237.714 27.2148 237.597 26.9658C237.479 26.7217 237.396 26.4067 237.348 26.021C237.084 24.2583 236.515 23.1475 235.641 22.6885C234.767 22.2295 233.634 22 232.243 22H229.188C227.724 22 226.625 22.0928 225.893 22.2783C225.165 22.4688 224.63 22.7935 224.289 23.2524C223.947 23.7114 223.659 24.4048 223.424 25.3325C223.229 26.0698 223.068 26.5874 222.941 26.8853C222.814 27.188 222.575 27.3394 222.223 27.3394C221.906 27.3394 221.698 27.2124 221.601 26.9585C221.503 26.7046 221.422 26.3628 221.359 25.9331C221.183 24.4634 220.883 23.2622 220.458 22.3296C220.258 21.8462 220.158 21.4775 220.158 21.2236C220.158 20.916 220.28 20.6938 220.524 20.5571C220.768 20.4204 221.037 20.3521 221.33 20.3521C221.486 20.3521 221.676 20.3716 221.901 20.4106C222.125 20.4497 222.294 20.4692 222.406 20.4692C222.831 20.4692 223.095 20.3008 223.197 19.9639C223.305 19.627 223.412 19.0557 223.52 18.25C223.676 17 223.959 15.7524 224.369 14.5073C224.784 13.2622 225.253 12.1001 225.775 11.021C226.298 9.94189 226.845 8.92139 227.416 7.95947C227.934 7.08545 228.336 6.31396 228.625 5.64502C228.917 4.97119 229.064 4.29248 229.064 3.60889C229.064 2.71045 228.476 2.26123 227.299 2.26123H225.673V1.00146H235.575ZM227.716 20.7402H232.938C232.787 20.1885 232.672 19.7588 232.594 19.4512C232.516 19.1436 232.431 18.8237 232.338 18.4917C231.508 15.4497 230.778 12.2295 230.148 8.83105C230.08 8.39648 229.979 7.84717 229.848 7.18311C229.179 8.03271 228.559 8.99951 227.987 10.0835C227.421 11.1675 226.928 12.2686 226.508 13.3867C226.088 14.5 225.763 15.5376 225.534 16.4995C225.309 17.4614 225.197 18.2256 225.197 18.792C225.197 19.3486 225.277 19.7661 225.438 20.0444C225.604 20.3179 225.861 20.5034 226.208 20.6011C226.559 20.6938 227.062 20.7402 227.716 20.7402ZM254.727 22H253.167C253.094 22.9521 253.045 23.7212 253.02 24.3071V25.6621C253.04 26.6924 253.159 27.7227 253.379 28.7529V29.5L250.589 29.7124C250.589 27.8765 250.728 25.9551 251.006 23.9482C251.055 23.5137 251.136 22.8643 251.248 22H248.516L243.748 2.26123H242.517V1.00146H250.589V2.26123H248.516L252.266 18.25C253.618 11.9756 254.739 7.4248 255.628 4.59766C255.882 3.82617 256.145 3.16455 256.419 2.61279C256.692 2.05615 257.08 1.57764 257.583 1.17725C258.091 0.776855 258.728 0.57666 259.495 0.57666C259.9 0.57666 260.391 0.654785 260.967 0.811035C261.543 0.967285 261.914 1.16992 262.08 1.41895C262.036 1.6875 261.946 1.98779 261.809 2.31982C261.668 2.62256 261.573 2.96436 261.524 3.34521C261.475 3.72607 261.45 4.45361 261.45 5.52783H260.996C260.879 5.46924 260.799 5.43018 260.755 5.41064C260.711 5.39111 260.611 5.33984 260.454 5.25684C259.893 4.95898 259.483 4.81006 259.224 4.81006C258.506 4.81006 257.864 5.22754 257.298 6.0625C256.736 6.89746 256.262 7.92529 255.877 9.146C255.491 10.3618 255.157 11.6533 254.873 13.0205C254.595 14.3877 254.375 15.4717 254.214 16.2725C253.78 18.3379 253.45 19.8271 253.225 20.7402H254.727V22ZM271.938 10.2666H273.044L273.461 9.43164C273.661 9.04102 273.822 8.67969 273.944 8.34766C274.101 8.02539 274.215 7.79102 274.289 7.64453C274.367 7.49316 274.462 7.29785 274.574 7.05859C274.921 6.35547 275.299 5.59375 275.71 4.77344C276.125 3.95312 276.557 3.23291 277.006 2.61279C277.46 1.99268 277.978 1.49951 278.559 1.1333C279.14 0.762207 279.801 0.57666 280.544 0.57666C281.481 0.57666 282.362 0.757324 283.188 1.11865C282.816 2.09033 282.609 2.6543 282.565 2.81055C282.521 2.96191 282.477 3.28906 282.433 3.79199C282.375 4.29492 282.345 4.77344 282.345 5.22754H281.745C281.388 5.10059 281.068 4.97119 280.785 4.83936C280.297 4.6001 279.757 4.48047 279.167 4.48047C278.581 4.48047 278.061 4.68066 277.607 5.08105C277.157 5.48145 276.706 6.07471 276.252 6.86084C275.802 7.64209 275.143 8.88965 274.274 10.6035C275.88 10.9697 277.277 11.4824 278.463 12.1416C279.655 12.8008 280.639 13.8237 281.415 15.2104C282.196 16.5972 282.607 18.4404 282.646 20.7402H284.447V22H276.288V20.7402H277.453C277.492 19.9785 277.511 19.439 277.511 19.1216C277.511 18.0034 277.421 17.022 277.24 16.1772C277.065 15.3325 276.764 14.583 276.339 13.9287C275.915 13.2744 275.336 12.7275 274.604 12.2881C273.876 11.8486 272.987 11.5264 271.938 11.3213V20.7402H273.798V22H264.796V20.7402H267.287V2.26123H264.796V1.00146H274.003V2.26123H271.938V10.2666ZM295.689 20.7402V2.26123H294.4H293.704C293.138 2.26123 292.686 2.34668 292.349 2.51758C292.017 2.68359 291.697 3.08154 291.39 3.71143C291.087 4.33643 290.769 5.31299 290.437 6.64111C290.276 7.24658 290.147 7.64941 290.049 7.84961C289.956 8.04492 289.756 8.14258 289.449 8.14258C289.097 8.14258 288.868 8.01807 288.76 7.76904C288.658 7.52002 288.597 7.18311 288.577 6.7583C288.548 5.93311 288.367 5.06396 288.035 4.15088C287.957 3.92139 287.786 3.51367 287.522 2.92773C287.264 2.33691 287.134 1.93408 287.134 1.71924C287.134 1.42627 287.246 1.1626 287.471 0.928223C287.696 0.693848 288.025 0.57666 288.46 0.57666C288.597 0.57666 288.87 0.623047 289.28 0.71582C289.69 0.808594 290.127 0.884277 290.591 0.942871C291.06 1.00146 291.687 1.03076 292.474 1.03076C292.635 1.03076 292.825 1.02588 293.045 1.01611C293.265 1.00635 293.435 1.00146 293.558 1.00146H302.464C302.596 1.00146 302.771 1.00635 302.991 1.01611C303.211 1.02588 303.396 1.03076 303.548 1.03076C304.334 1.03076 304.961 1.00146 305.43 0.942871C305.904 0.884277 306.343 0.808594 306.748 0.71582C307.159 0.623047 307.432 0.57666 307.569 0.57666C308.003 0.57666 308.33 0.693848 308.55 0.928223C308.775 1.15771 308.887 1.42139 308.887 1.71924C308.887 1.94873 308.763 2.33936 308.514 2.89111C308.265 3.44287 308.089 3.86279 307.986 4.15088C307.64 5.0835 307.449 5.95264 307.415 6.7583C307.415 7.68115 307.137 8.14258 306.58 8.14258C306.341 8.14258 306.158 8.06445 306.031 7.9082C305.909 7.74707 305.818 7.56152 305.76 7.35156C305.701 7.13672 305.555 6.57031 305.32 5.65234C305.037 4.61719 304.732 3.86035 304.405 3.38184C304.078 2.89844 303.706 2.59082 303.291 2.45898C302.881 2.32715 302.327 2.26123 301.629 2.26123H300.34V20.7402H302.83V22H293.199V20.7402H295.689ZM321.652 1.00146V2.26123H319.162V9.67334C319.709 10.1812 320.397 10.623 321.227 10.999C322.057 11.375 322.88 11.6631 323.695 11.8633C324.516 12.0635 325.173 12.1636 325.666 12.1636C325.861 12.1636 326.271 12.1416 326.896 12.0977C327.585 12.0977 328.066 12.2222 328.339 12.4712C328.617 12.7153 328.757 13.2427 328.757 14.0532V19.8979C328.757 20.5425 328.691 21.0137 328.559 21.3115C328.427 21.6045 328.237 21.7925 327.987 21.8755C327.738 21.9585 327.384 22 326.925 22H312.021V20.7402H314.511V2.26123H312.021V1.00146H321.652ZM332.419 20.7402V2.26123H329.928V1.00146H339.56V2.26123H337.07V20.7402H339.56V22H329.928V20.7402H332.419ZM319.162 20.7402H321.857C322.521 20.7402 323.061 20.645 323.476 20.4546C323.896 20.2642 324.106 19.8003 324.106 19.063V15.4888C324.106 15.313 324.101 15.2007 324.091 15.1519C324.081 15.103 324.076 14.9761 324.076 14.771C324.062 14.2632 323.979 13.9165 323.827 13.731C323.676 13.5405 323.239 13.3379 322.516 13.123C321.232 12.7178 320.114 12.1172 319.162 11.3213V20.7402Z" fill="#823E9A"/>
</svg>
