<svg width="18" height="14" viewBox="0 0 18 14" fill="none" xmlns="http://www.w3.org/2000/svg">
<path d="M0.375855 1.34533C2.84628 3.43751 7.18112 7.1183 8.45518 8.26598C8.62622 8.42088 8.80966 8.49963 9.0001 8.49963C9.19016 8.49963 9.37329 8.42161 9.54394 8.26745C10.8191 7.11865 15.1539 3.43751 17.6244 1.34533C17.7782 1.21532 17.8016 0.986805 17.6771 0.827863C17.3893 0.460586 16.9601 0.25 16.5001 0.25H1.50012C1.04017 0.25 0.610945 0.460586 0.323121 0.827899C0.198597 0.986805 0.222046 1.21532 0.375855 1.34533Z" fill="#823E9A"/>
<path d="M17.7826 2.47905C17.6497 2.41718 17.4933 2.43876 17.3827 2.53326C15.7648 3.90471 13.6331 5.71673 12.0254 7.09953C11.9408 7.17206 11.8932 7.27862 11.8951 7.39031C11.8969 7.50165 11.9485 7.60673 12.0357 7.67631C13.5295 8.87271 15.7806 10.5185 17.4062 11.6882C17.471 11.735 17.5479 11.7588 17.6252 11.7588C17.6838 11.7588 17.7423 11.7453 17.7962 11.7174C17.9215 11.6534 18.0002 11.5244 18.0002 11.3838V2.81926C18.0001 2.67315 17.9152 2.54022 17.7826 2.47905Z" fill="#823E9A"/>
<path d="M0.594 11.6883C2.21998 10.5186 4.47145 8.87291 5.96486 7.67647C6.05201 7.6069 6.10365 7.50178 6.10548 7.39047C6.10731 7.27878 6.05971 7.17222 5.97512 7.0997C4.36743 5.7169 2.23534 3.90487 0.617449 2.53343C0.506109 2.43893 0.349383 2.41808 0.217547 2.47922C0.0849727 2.54039 0 2.67331 0 2.81942V11.384C0 11.5246 0.07875 11.6536 0.203977 11.7176C0.257801 11.7455 0.316406 11.759 0.375012 11.759C0.452285 11.759 0.529172 11.7352 0.594 11.6883Z" fill="#823E9A"/>
<path d="M17.5405 12.7083C15.9705 11.5852 13.0785 9.49119 11.3522 8.09004C11.2116 7.97543 11.008 7.97908 10.8696 8.09848C10.5308 8.394 10.2474 8.64305 10.0463 8.82392C9.42885 9.38129 8.57192 9.38129 7.95303 8.82319C7.75271 8.64266 7.46928 8.39287 7.13051 8.09844C6.99319 7.97831 6.78922 7.97466 6.6482 8.09C4.92773 9.48637 2.03247 11.5829 0.459966 12.7083C0.372427 12.7713 0.316037 12.8683 0.305068 12.9756C0.294451 13.0829 0.329959 13.1895 0.403576 13.2686C0.687427 13.5744 1.08733 13.7498 1.50006 13.7498H16.5001C16.9128 13.7498 17.3123 13.5744 17.5969 13.2686C17.6701 13.1899 17.706 13.0833 17.6954 12.976C17.6844 12.8688 17.628 12.7713 17.5405 12.7083Z" fill="#823E9A"/>
</svg>
