<svg width="18" height="18" viewBox="0 0 18 18" fill="none" xmlns="http://www.w3.org/2000/svg">
<g clip-path="url(#clip0)">
<path d="M0.375855 3.34533C2.84628 5.43751 7.18112 9.1183 8.45518 10.266C8.62622 10.4209 8.80966 10.4996 9.0001 10.4996C9.19016 10.4996 9.37329 10.4216 9.54394 10.2675C10.8191 9.11865 15.1539 5.43751 17.6244 3.34533C17.7782 3.21532 17.8016 2.9868 17.6771 2.82786C17.3893 2.46059 16.9601 2.25 16.5001 2.25H1.50012C1.04017 2.25 0.610945 2.46059 0.323121 2.8279C0.198597 2.9868 0.222046 3.21532 0.375855 3.34533Z" fill="#58094A"/>
<path d="M17.7826 4.47905C17.6497 4.41718 17.4933 4.43876 17.3827 4.53326C15.7648 5.90471 13.6331 7.71673 12.0254 9.09953C11.9408 9.17206 11.8932 9.27862 11.8951 9.39031C11.8969 9.50165 11.9485 9.60673 12.0357 9.67631C13.5295 10.8727 15.7806 12.5185 17.4062 13.6882C17.471 13.735 17.5479 13.7588 17.6252 13.7588C17.6838 13.7588 17.7423 13.7453 17.7962 13.7174C17.9215 13.6534 18.0002 13.5244 18.0002 13.3838V4.81926C18.0001 4.67315 17.9152 4.54022 17.7826 4.47905Z" fill="#58094A"/>
<path d="M0.594 13.6883C2.21998 12.5186 4.47145 10.8729 5.96486 9.67647C6.05201 9.6069 6.10365 9.50178 6.10548 9.39047C6.10731 9.27878 6.05971 9.17222 5.97512 9.0997C4.36743 7.7169 2.23534 5.90487 0.617449 4.53343C0.506109 4.43893 0.349383 4.41808 0.217547 4.47922C0.0849727 4.54039 0 4.67331 0 4.81942V13.384C0 13.5246 0.07875 13.6536 0.203977 13.7176C0.257801 13.7455 0.316406 13.759 0.375012 13.759C0.452285 13.759 0.529172 13.7352 0.594 13.6883Z" fill="#58094A"/>
<path d="M17.5405 14.7083C15.9705 13.5852 13.0785 11.4912 11.3522 10.09C11.2116 9.97543 11.008 9.97908 10.8696 10.0985C10.5308 10.394 10.2474 10.643 10.0463 10.8239C9.42885 11.3813 8.57192 11.3813 7.95303 10.8232C7.75271 10.6427 7.46928 10.3929 7.13051 10.0984C6.99319 9.97831 6.78922 9.97466 6.6482 10.09C4.92773 11.4864 2.03247 13.5829 0.459966 14.7083C0.372427 14.7713 0.316037 14.8683 0.305068 14.9756C0.294451 15.0829 0.329959 15.1895 0.403576 15.2686C0.687427 15.5744 1.08733 15.7498 1.50006 15.7498H16.5001C16.9128 15.7498 17.3123 15.5744 17.5969 15.2686C17.6701 15.1899 17.706 15.0833 17.6954 14.976C17.6844 14.8688 17.628 14.7713 17.5405 14.7083Z" fill="#58094A"/>
</g>
<defs>
<clipPath id="clip0">
<rect width="18" height="18" fill="white"/>
</clipPath>
</defs>
</svg>
