<svg width="12" height="16" viewBox="0 0 12 16" fill="none" xmlns="http://www.w3.org/2000/svg">
<path d="M7.00415 9.975C9.76324 9.975 11.9916 7.74194 11.9916 4.9875C11.9916 2.23738 9.75427 0 7.00415 0H1.9833C1.72443 0 1.51455 0.209875 1.51455 0.46875V7.02916H0.477051C0.218176 7.02916 0.00830078 7.23903 0.00830078 7.49791V9.50625C0.00830078 9.76513 0.218176 9.975 0.477051 9.975H1.51455V11.0458H0.477051C0.218176 11.0458 0.00830078 11.2557 0.00830078 11.5146V13.5229C0.00830078 13.7818 0.218176 13.9917 0.477051 13.9917H1.51455V15.5312C1.51455 15.7901 1.72443 16 1.9833 16H3.99164C4.25052 16 4.46039 15.7901 4.46039 15.5312V13.9917H7.50621C7.76508 13.9917 7.97496 13.7818 7.97496 13.5229V11.5146C7.97496 11.2557 7.76508 11.0458 7.50621 11.0458H4.46036V9.975H7.00415ZM4.46036 2.94584H7.00411C8.12986 2.94584 9.04577 3.86175 9.04577 4.9875C9.04577 6.11325 8.12986 7.02916 7.00411 7.02916H4.46036V2.94584Z" fill="#9D9D9D"/>
</svg>
