<svg width="20" height="20" viewBox="0 0 20 20" fill="none" xmlns="http://www.w3.org/2000/svg">
<path d="M19.4865 14.7513L17.0002 12.265C16.3148 11.5796 15.1994 11.5796 14.5139 12.265L13.3838 13.3951C12.8645 13.9144 12.0195 13.9143 11.5004 13.3953L6.60196 8.4927C6.08145 7.97219 6.08137 7.12973 6.60196 6.60914C6.78399 6.42711 7.30669 5.90442 7.73208 5.47903C8.41454 4.7966 8.42407 3.68469 7.73142 2.99211L5.24579 0.514297C4.56032 -0.171133 3.44496 -0.171133 2.76133 0.512501C2.24976 1.01961 2.08476 1.1832 1.85539 1.41059C-0.61649 3.88242 -0.61649 7.90442 1.85527 10.3762L9.61669 18.1417C12.0944 20.6193 16.1045 20.6195 18.5824 18.1417L19.4865 17.2375C20.172 16.5521 20.172 15.4368 19.4865 14.7513ZM3.58828 1.34305C3.81676 1.11457 4.18848 1.11453 4.4177 1.34367L6.90333 3.82149C7.13235 4.05051 7.13235 4.42117 6.90333 4.65024L6.48891 5.06461L3.17602 1.75172L3.58828 1.34305ZM10.4456 17.313L2.68414 9.54747C0.771715 7.63504 0.666598 4.63211 2.36086 2.5941L5.66415 5.89739C4.79618 6.88133 4.83235 8.38067 5.77301 9.32133L10.6713 14.2237C10.6713 14.2238 10.6714 14.2238 10.6715 14.2239C11.6111 15.1636 13.1104 15.2021 14.0955 14.3329L17.3989 17.6363C15.3674 19.3276 12.3712 19.2386 10.4456 17.313ZM18.6578 16.4088L18.2434 16.8232L14.9283 13.5081L15.3427 13.0938C15.5712 12.8653 15.943 12.8652 16.1715 13.0938L18.6578 15.58C18.8863 15.8086 18.8863 16.1804 18.6578 16.4088Z" fill="#823E9A"/>
</svg>
