<svg width="307" height="27" viewBox="0 0 307 27" fill="none" xmlns="http://www.w3.org/2000/svg">
<path d="M7.44873 1.85278H5.37231V0.718994H13.7703V1.85278H11.6345L16.6047 18.8662H18.4702V20H10.3689V18.8662H12.4189L10.3953 11.8723C10.2107 12.7688 9.91406 13.7224 9.50537 14.7332C9.10107 15.7395 8.61548 16.6711 8.04858 17.5281C7.48169 18.3806 6.84888 19.0684 6.15015 19.5913C5.45581 20.1143 4.7373 20.3757 3.99463 20.3757C3.15967 20.3757 2.44556 20.1077 1.85229 19.5715C1.26343 19.031 0.968994 18.2202 0.968994 17.1392C0.968994 16.1812 1.17993 15.1287 1.60181 13.9817C2.02368 12.8303 2.56641 11.6724 3.22998 10.5078C3.89355 9.34326 4.6626 8.09741 5.53711 6.77026C5.58984 6.68677 5.86011 6.28027 6.3479 5.55078C6.83569 4.81689 7.1543 4.26099 7.30371 3.88306C7.45752 3.50073 7.53442 3.09424 7.53442 2.66357C7.53442 2.41309 7.50586 2.14282 7.44873 1.85278ZM9.61084 9.30811L8.39795 5.01685C7.38721 6.41431 6.52368 7.77222 5.80737 9.09058C5.29321 10.0134 4.86914 10.8682 4.53516 11.6548C4.20117 12.437 3.98584 13.2742 3.88916 14.1663V14.8716C4.02539 15.7505 4.53735 16.1899 5.42505 16.1899C6.1062 16.1899 6.7478 15.7878 7.34985 14.9836C7.9519 14.1794 8.45288 13.2346 8.85278 12.1492C9.25269 11.0593 9.50537 10.1123 9.61084 9.30811ZM29.3588 18.8662H31.1122C30.6508 17.4688 30.2399 16.0449 29.8796 14.5947C29.5236 13.1401 29.2314 11.8503 29.0029 10.7253C28.7743 9.59595 28.5612 8.49292 28.3634 7.41626C28.1921 6.46265 28.0383 5.71558 27.902 5.17505C27.4186 5.73755 26.9067 6.54834 26.3661 7.60742C24.9775 10.1914 24.2831 12.3601 24.2831 14.1135C24.2831 14.9485 24.3117 15.5571 24.3688 15.9395C24.4303 16.3174 24.5072 16.5591 24.5995 16.6646C24.6962 16.7656 24.8171 16.8162 24.9621 16.8162H25.0675H25.1203C25.3312 16.8162 25.4916 16.9919 25.6015 17.3435C25.7113 17.6951 25.7663 18.4553 25.7663 19.6243C25.7663 19.8835 25.641 20.0725 25.3905 20.1912C25.2192 20.2615 25.0214 20.2966 24.7973 20.2966C24.582 20.2966 24.2765 20.2615 23.881 20.1912C23.7184 20.1736 23.4745 20.1648 23.1493 20.1648C22.7714 20.1648 22.4836 20.1736 22.2858 20.1912C21.776 20.1912 21.4091 20.1296 21.185 20.0066C20.9653 19.8835 20.8378 19.6287 20.8027 19.2419V18.2993C20.8378 17.6401 20.9257 16.9854 21.0663 16.335C21.2113 15.6846 21.4574 14.9309 21.8046 14.074C22.1562 13.2126 22.6681 12.1272 23.3405 10.8176C23.8327 9.86401 24.248 9.05981 24.5863 8.40503C24.9247 7.74585 25.1027 7.39868 25.1203 7.36353C25.6652 6.37036 26.12 5.49585 26.4848 4.73999C26.8539 3.98413 27.0385 3.37329 27.0385 2.90747C27.0385 2.61304 26.9616 2.42847 26.8078 2.35376C26.654 2.27466 26.4255 2.23511 26.1222 2.23511H24.2568V1.10132H33.1689V2.23511H31.5209C31.8154 4.43677 32.268 6.89331 32.8788 9.60474C33.4941 12.3118 34.1401 14.7771 34.8168 17.0007C35.0014 17.5896 35.1706 18.2114 35.3244 18.8662H37.2953V20H29.3588V18.8662ZM48.4806 1.10132V2.23511H46.2393V8.90601C46.7315 9.36304 47.3512 9.76074 48.0982 10.0991C48.8453 10.4375 49.5858 10.6968 50.3197 10.877C51.0579 11.0571 51.649 11.1472 52.0929 11.1472C52.2686 11.1472 52.6378 11.1274 53.2003 11.0879C53.8199 11.0879 54.2528 11.2 54.4989 11.4241C54.7494 11.6438 54.8746 12.1184 54.8746 12.8479V18.1082C54.8746 18.6882 54.8153 19.1123 54.6966 19.3804C54.578 19.644 54.4066 19.8132 54.1825 19.8879C53.9583 19.9626 53.6397 20 53.2267 20H39.8123V18.8662H42.0536V2.23511H39.8123V1.10132H48.4806ZM46.2393 18.8662H48.6651C49.2628 18.8662 49.7484 18.7805 50.1219 18.6091C50.4998 18.4377 50.6888 18.0203 50.6888 17.3567V14.1399C50.6888 13.9817 50.6844 13.8806 50.6756 13.8367C50.6668 13.7927 50.6624 13.6785 50.6624 13.4939C50.6493 13.0369 50.5746 12.7249 50.4383 12.5579C50.3021 12.3865 49.9088 12.2041 49.2584 12.0107C48.1026 11.646 47.0963 11.1055 46.2393 10.3892V18.8662ZM64.4844 2.23511V18.8662H66.3433V20H58.0574V18.8662H60.2986V2.23511H58.0574V1.10132H76.877V2.23511H74.6358V18.8662H76.877V20H68.5845V18.8662H70.45V2.23511H64.4844ZM86.467 1.85278H84.3906V0.718994H92.7885V1.85278H90.6528L95.623 18.8662H97.4885V20H89.3871V18.8662H91.4372L89.4135 11.8723C89.2289 12.7688 88.9323 13.7224 88.5236 14.7332C88.1193 15.7395 87.6337 16.6711 87.0668 17.5281C86.4999 18.3806 85.8671 19.0684 85.1684 19.5913C84.4741 20.1143 83.7555 20.3757 83.0129 20.3757C82.1779 20.3757 81.4638 20.1077 80.8705 19.5715C80.2817 19.031 79.9872 18.2202 79.9872 17.1392C79.9872 16.1812 80.1982 15.1287 80.62 13.9817C81.0419 12.8303 81.5846 11.6724 82.2482 10.5078C82.9118 9.34326 83.6808 8.09741 84.5554 6.77026C84.6081 6.68677 84.8783 6.28027 85.3661 5.55078C85.8539 4.81689 86.1725 4.26099 86.322 3.88306C86.4758 3.50073 86.5527 3.09424 86.5527 2.66357C86.5527 2.41309 86.5241 2.14282 86.467 1.85278ZM88.6291 9.30811L87.4162 5.01685C86.4054 6.41431 85.5419 7.77222 84.8256 9.09058C84.3115 10.0134 83.8874 10.8682 83.5534 11.6548C83.2194 12.437 83.0041 13.2742 82.9074 14.1663V14.8716C83.0436 15.7505 83.5556 16.1899 84.4433 16.1899C85.1244 16.1899 85.766 15.7878 86.3681 14.9836C86.9701 14.1794 87.4711 13.2346 87.871 12.1492C88.2709 11.0593 88.5236 10.1123 88.6291 9.30811ZM110.486 18.8662L107.54 5.14868C106.854 6.20776 106.285 7.20752 105.833 8.14795C105.38 9.08398 105.037 10.0156 104.804 10.9429C104.576 11.8701 104.462 12.8193 104.462 13.7905C104.462 14.3706 104.521 15.1968 104.64 16.269C104.763 17.3413 104.831 18.0093 104.844 18.2729V19.6243C104.813 19.9055 104.686 20.0945 104.462 20.1912C104.299 20.2615 104.101 20.2966 103.868 20.2966C103.653 20.2966 103.33 20.2615 102.899 20.1912C102.737 20.1736 102.502 20.1648 102.194 20.1648C101.816 20.1648 101.528 20.1736 101.33 20.1912C101.04 20.2263 100.851 20.2439 100.764 20.2439C100.434 20.2439 100.194 20.1143 100.045 19.855C99.8956 19.5957 99.8209 19.0771 99.8209 18.2993C99.8209 16.9766 99.9989 15.7856 100.355 14.7266C100.711 13.6675 101.159 12.7227 101.7 11.8921C102.24 11.0615 103.027 9.9563 104.059 8.57642C105.07 7.20972 105.795 6.12866 106.235 5.33325C106.674 4.53784 106.894 3.72925 106.894 2.90747C106.894 2.74927 106.876 2.52515 106.841 2.23511H104.844V1.10132H112.563V2.23511H111.053L114.481 18.0818L117.48 2.23511H116.287V1.10132H123.551V2.23511H121.798L125.417 18.8662H127.276V20H120.045V18.8662H121.231L118.179 4.66089L115.536 18.8662H116.966V20H109.082V18.8662H110.486ZM147.036 2.23511V18.8662H148.895V20H140.609V18.8662H142.85V2.23511H140.609V1.10132H159.428V2.23511H157.187V18.8662H159.428V20H151.136V18.8662H153.001V2.23511H147.036ZM169.051 12.7886V18.8662H171.293V20H162.624V18.8662H164.866V8.98511C164.866 7.57886 164.892 6.20996 164.945 4.87842C165.476 3.58643 166.331 2.57129 167.509 1.83301C168.691 1.09033 170.005 0.718994 171.451 0.718994C172.879 0.718994 174.107 0.956299 175.136 1.43091C176.164 1.90552 176.944 2.55591 177.476 3.38208C178.012 4.20825 178.28 5.12231 178.28 6.12427C178.28 7.09985 178.082 7.98755 177.687 8.78735C177.291 9.58716 176.744 10.2156 176.045 10.6726C175.351 11.1296 174.575 11.3582 173.718 11.3582C173.279 11.3582 172.93 11.3098 172.67 11.2131C172.411 11.1121 172.022 10.9275 171.504 10.6594C171.227 10.5188 171.029 10.4199 170.91 10.3628L169.051 12.7886ZM169.051 11.1736L170.778 8.98511C170.945 9.11694 171.128 9.22681 171.326 9.3147C171.528 9.39819 171.677 9.43994 171.774 9.43994C172.2 9.43994 172.6 9.20483 172.973 8.73462C173.347 8.26001 173.534 7.37012 173.534 6.06494C173.534 4.76416 173.373 3.73804 173.053 2.98657C172.736 2.23071 172.139 1.85278 171.26 1.85278C170.6 1.85278 170.108 2.08789 169.783 2.55811C169.462 3.02832 169.26 3.6062 169.177 4.29175C169.093 4.97729 169.051 5.83862 169.051 6.87573V7.52832V11.1736ZM189.327 0.369629C189.498 0.369629 189.641 0.426758 189.755 0.541016C189.869 0.650879 190.105 0.89917 190.46 1.28589C191.058 1.90112 191.913 2.69434 193.025 3.66553C194.185 4.67627 195.077 5.68481 195.701 6.69116C196.329 7.69751 196.644 8.93896 196.644 10.4155C196.644 11.6724 196.413 12.7754 195.951 13.7246C195.494 14.6738 194.985 15.4451 194.422 16.0383C193.864 16.6272 192.724 17.75 191.001 19.4067C190.491 19.9165 190.113 20.2637 189.867 20.4482C189.626 20.6372 189.401 20.7317 189.195 20.7317C189.006 20.7317 188.744 20.6108 188.41 20.3691C188.081 20.1318 187.424 19.5957 186.439 18.7607C185.477 17.9258 184.807 17.3347 184.429 16.9875C184.051 16.636 183.631 16.1548 183.17 15.5439C182.713 14.9287 182.346 14.2344 182.069 13.4609C181.797 12.6875 181.66 11.8152 181.66 10.844C181.66 7.71069 183.425 4.75977 186.954 1.99121C187.472 1.57813 187.859 1.24414 188.114 0.989258C188.492 0.576172 188.896 0.369629 189.327 0.369629ZM187.547 3.93579C186.91 4.02368 186.341 4.27197 185.84 4.68066C185.343 5.08936 184.959 5.58594 184.686 6.17041C184.414 6.75049 184.277 7.32837 184.277 7.90405C184.277 8.33032 184.365 8.77417 184.541 9.2356C184.717 9.69263 184.976 10.176 185.319 10.6858C185.662 11.1956 186.073 11.7185 186.552 12.2546C187.031 12.7908 187.633 13.4192 188.358 14.1399C189.237 15.0056 189.808 15.6208 190.072 15.9856C190.34 16.3503 190.498 16.77 190.546 17.2446C191.328 16.9458 192.058 16.4448 192.735 15.7417C193.411 15.0342 193.807 14.2937 193.921 13.5203V12.604C193.864 12.2393 193.728 11.8613 193.512 11.4702C193.297 11.0747 193.042 10.688 192.748 10.3101C192.453 9.93213 192.111 9.52124 191.72 9.07739C191.328 8.63354 190.865 8.11719 190.329 7.52832C189.845 6.99219 189.434 6.53955 189.096 6.17041C188.762 5.79688 188.498 5.48926 188.305 5.24756C188.112 5.00586 187.958 4.78833 187.844 4.59497C187.734 4.39722 187.635 4.17749 187.547 3.93579ZM212.918 1.10132V2.23511H211.408C211.5 3.16675 211.692 4.53784 211.982 6.34839C212.276 8.15454 212.63 10.0508 213.043 12.0371C213.456 14.0234 213.858 15.6538 214.249 16.9282C214.645 18.2026 214.983 18.8398 215.264 18.8398C215.361 18.8398 215.495 18.7871 215.666 18.6816C215.838 18.5718 216.119 18.5168 216.51 18.5168C216.765 18.5168 216.958 18.6113 217.09 18.8003C217.227 18.9893 217.295 19.2002 217.295 19.4331C217.295 19.6001 217.176 19.978 216.939 20.5669C216.706 21.1646 216.517 21.8303 216.372 22.5642C216.218 23.4695 216.093 24.0693 215.996 24.3638C215.904 24.6582 215.688 24.8054 215.35 24.8054C215.047 24.8054 214.842 24.6934 214.737 24.4692C214.632 24.2495 214.557 23.9661 214.513 23.6189C214.276 22.0325 213.764 21.0327 212.977 20.6196C212.19 20.2065 211.171 20 209.918 20H207.17C205.851 20 204.863 20.0835 204.203 20.2505C203.549 20.4219 203.067 20.7141 202.76 21.1272C202.452 21.5403 202.193 22.1643 201.982 22.9993C201.806 23.6628 201.661 24.1287 201.547 24.3967C201.433 24.6692 201.217 24.8054 200.901 24.8054C200.615 24.8054 200.428 24.6912 200.341 24.4626C200.253 24.2341 200.18 23.9265 200.123 23.5398C199.965 22.217 199.695 21.136 199.312 20.2966C199.132 19.8616 199.042 19.5298 199.042 19.3013C199.042 19.0244 199.152 18.8245 199.372 18.7014C199.591 18.5784 199.833 18.5168 200.097 18.5168C200.237 18.5168 200.409 18.5344 200.611 18.5696C200.813 18.6047 200.965 18.6223 201.066 18.6223C201.448 18.6223 201.685 18.4707 201.778 18.1675C201.874 17.8643 201.971 17.3501 202.068 16.625C202.208 15.5 202.463 14.3772 202.832 13.2566C203.206 12.136 203.628 11.0901 204.098 10.1189C204.568 9.14771 205.06 8.22925 205.574 7.36353C206.04 6.5769 206.403 5.88257 206.662 5.28052C206.926 4.67407 207.058 4.06323 207.058 3.448C207.058 2.6394 206.528 2.23511 205.469 2.23511H204.006V1.10132H212.918ZM205.845 18.8662H210.545C210.408 18.3696 210.305 17.9829 210.235 17.7061C210.165 17.4292 210.088 17.1414 210.004 16.8425C209.257 14.1047 208.6 11.2065 208.033 8.14795C207.972 7.75684 207.882 7.26245 207.763 6.66479C207.161 7.42944 206.603 8.29956 206.089 9.27515C205.579 10.2507 205.135 11.2417 204.757 12.248C204.379 13.25 204.087 14.1838 203.88 15.0496C203.678 15.9153 203.577 16.603 203.577 17.1128C203.577 17.6138 203.65 17.9895 203.795 18.24C203.944 18.4861 204.175 18.6531 204.487 18.741C204.803 18.8245 205.256 18.8662 205.845 18.8662ZM230.154 20H228.75C228.684 20.8569 228.64 21.5491 228.618 22.0764V23.2959C228.636 24.2231 228.744 25.1504 228.941 26.0776V26.75L226.43 26.9412C226.43 25.2888 226.555 23.5596 226.806 21.7534C226.849 21.3623 226.922 20.7778 227.023 20H224.564L220.273 2.23511H219.166V1.10132H226.43V2.23511H224.564L227.939 16.625C229.157 10.978 230.165 6.88232 230.965 4.33789C231.193 3.64355 231.431 3.0481 231.677 2.55151C231.923 2.05054 232.272 1.61987 232.725 1.25952C233.182 0.89917 233.755 0.718994 234.445 0.718994C234.81 0.718994 235.252 0.789307 235.77 0.929932C236.289 1.07056 236.623 1.25293 236.772 1.47705C236.733 1.71875 236.651 1.98901 236.528 2.28784C236.401 2.5603 236.315 2.86792 236.271 3.21069C236.227 3.55347 236.205 4.20825 236.205 5.17505H235.797C235.691 5.12231 235.619 5.08716 235.579 5.06958C235.54 5.052 235.45 5.00586 235.309 4.93115C234.804 4.66309 234.434 4.52905 234.202 4.52905C233.556 4.52905 232.978 4.90479 232.468 5.65625C231.963 6.40771 231.536 7.33276 231.189 8.4314C230.842 9.52563 230.541 10.688 230.286 11.9185C230.036 13.1489 229.838 14.1245 229.693 14.8452C229.302 16.7041 229.005 18.0444 228.803 18.8662H230.154V20ZM245.644 9.43994H246.639L247.015 8.68848C247.195 8.33691 247.34 8.01172 247.45 7.71289C247.591 7.42285 247.694 7.21191 247.76 7.08008C247.83 6.94385 247.916 6.76807 248.017 6.55273C248.329 5.91992 248.669 5.23438 249.039 4.49609C249.412 3.75781 249.801 3.10962 250.205 2.55151C250.614 1.99341 251.08 1.54956 251.603 1.21997C252.126 0.885986 252.721 0.718994 253.389 0.718994C254.233 0.718994 255.026 0.881592 255.769 1.20679C255.435 2.0813 255.248 2.58887 255.209 2.72949C255.169 2.86572 255.129 3.16016 255.09 3.61279C255.037 4.06543 255.011 4.49609 255.011 4.90479H254.47C254.149 4.79053 253.862 4.67407 253.607 4.55542C253.167 4.34009 252.682 4.23242 252.15 4.23242C251.623 4.23242 251.155 4.4126 250.746 4.77295C250.342 5.1333 249.935 5.66724 249.526 6.37476C249.122 7.07788 248.529 8.20068 247.747 9.74316C249.192 10.0728 250.449 10.5342 251.517 11.1274C252.589 11.7207 253.475 12.6414 254.174 13.8894C254.877 15.1375 255.246 16.7964 255.281 18.8662H256.903V20H249.559V18.8662H250.607C250.643 18.1807 250.66 17.6951 250.66 17.4094C250.66 16.4031 250.579 15.5198 250.416 14.7595C250.258 13.9993 249.988 13.3247 249.606 12.7358C249.223 12.147 248.702 11.6548 248.043 11.2593C247.388 10.8638 246.589 10.5737 245.644 10.3892V18.8662H247.318V20H239.217V18.8662H241.458V2.23511H239.217V1.10132H247.503V2.23511H245.644V9.43994ZM267.02 18.8662V2.23511H265.86H265.234C264.724 2.23511 264.317 2.31201 264.014 2.46582C263.715 2.61523 263.427 2.97339 263.151 3.54028C262.878 4.10278 262.592 4.98169 262.294 6.177C262.149 6.72192 262.032 7.08447 261.944 7.26465C261.861 7.44043 261.681 7.52832 261.404 7.52832C261.087 7.52832 260.881 7.41626 260.784 7.19214C260.692 6.96802 260.637 6.66479 260.619 6.28247C260.593 5.53979 260.43 4.75757 260.132 3.93579C260.061 3.72925 259.907 3.3623 259.67 2.83496C259.437 2.30322 259.321 1.94067 259.321 1.74731C259.321 1.48364 259.422 1.24634 259.624 1.0354C259.826 0.824463 260.123 0.718994 260.514 0.718994C260.637 0.718994 260.883 0.760742 261.252 0.844238C261.621 0.927734 262.015 0.99585 262.432 1.04858C262.854 1.10132 263.419 1.12769 264.126 1.12769C264.271 1.12769 264.443 1.12329 264.64 1.1145C264.838 1.10571 264.992 1.10132 265.102 1.10132H273.117C273.236 1.10132 273.394 1.10571 273.592 1.1145C273.79 1.12329 273.957 1.12769 274.093 1.12769C274.801 1.12769 275.365 1.10132 275.787 1.04858C276.213 0.99585 276.609 0.927734 276.974 0.844238C277.343 0.760742 277.589 0.718994 277.712 0.718994C278.103 0.718994 278.397 0.824463 278.595 1.0354C278.797 1.24194 278.898 1.47925 278.898 1.74731C278.898 1.95386 278.786 2.30542 278.562 2.802C278.338 3.29858 278.18 3.67651 278.088 3.93579C277.776 4.77515 277.604 5.55737 277.573 6.28247C277.573 7.11304 277.323 7.52832 276.822 7.52832C276.607 7.52832 276.442 7.45801 276.328 7.31738C276.218 7.17236 276.136 7.00537 276.084 6.81641C276.031 6.62305 275.899 6.11328 275.688 5.28711C275.433 4.35547 275.159 3.67432 274.864 3.24365C274.57 2.80859 274.236 2.53174 273.862 2.41309C273.493 2.29443 272.994 2.23511 272.366 2.23511H271.206V18.8662H273.447V20H264.779V18.8662H267.02ZM290.387 1.10132V2.23511H288.146V8.90601C288.638 9.36304 289.257 9.76074 290.005 10.0991C290.752 10.4375 291.492 10.6968 292.226 10.877C292.964 11.0571 293.555 11.1472 293.999 11.1472C294.175 11.1472 294.544 11.1274 295.107 11.0879C295.726 11.0879 296.159 11.2 296.405 11.4241C296.656 11.6438 296.781 12.1184 296.781 12.8479V18.1082C296.781 18.6882 296.722 19.1123 296.603 19.3804C296.484 19.644 296.313 19.8132 296.089 19.8879C295.865 19.9626 295.546 20 295.133 20H281.719V18.8662H283.96V2.23511H281.719V1.10132H290.387ZM300.077 18.8662V2.23511H297.836V1.10132H306.504V2.23511H304.263V18.8662H306.504V20H297.836V18.8662H300.077ZM288.146 18.8662H290.571C291.169 18.8662 291.655 18.7805 292.028 18.6091C292.406 18.4377 292.595 18.0203 292.595 17.3567V14.1399C292.595 13.9817 292.591 13.8806 292.582 13.8367C292.573 13.7927 292.569 13.6785 292.569 13.4939C292.556 13.0369 292.481 12.7249 292.345 12.5579C292.208 12.3865 291.815 12.2041 291.165 12.0107C290.009 11.646 289.003 11.1055 288.146 10.3892V18.8662Z" fill="#63676A"/>
</svg>
